<svg width="2190" height="564" viewBox="0 0 2190 564" fill="none" xmlns="http://www.w3.org/2000/svg">
<path d="M156.741 0C159.271 0.174701 159.871 0.877598 161.684 2.64439C163.331 4.77697 163.331 4.77697 163.331 6.82424C164.781 7.49984 164.781 7.49984 166.26 8.18909C166.26 8.86469 166.26 9.54029 166.26 10.2364C166.963 10.4895 166.963 10.4895 167.679 10.7482C169.588 11.8264 169.403 12.3983 169.922 14.3309C170.405 14.5561 170.888 14.7813 171.386 15.0133C171.869 15.2385 172.353 15.4637 172.851 15.6958C173.094 16.6054 173.339 17.5158 173.583 18.4255C174.066 18.6507 174.549 18.8759 175.047 19.1079C175.531 19.3331 176.014 19.5583 176.512 19.7903C176.756 20.7 177 21.6103 177.244 22.52C177.712 22.7309 178.181 22.9424 178.662 23.1601C180.726 24.1503 180.796 25.3377 181.638 27.297C182.121 27.5222 182.604 27.7474 183.102 27.9794C185.141 28.9293 185.283 30.1331 186.031 32.0739C186.514 32.2991 186.998 32.5243 187.495 32.7564C189.908 34.8869 192.125 37.0761 194.086 39.5806C194.086 40.031 194.086 40.4814 194.086 40.9455C195.052 41.3959 196.019 41.8463 197.015 42.3103C197.015 42.9859 197.015 43.6615 197.015 44.3576C197.468 44.5268 197.92 44.6954 198.388 44.8694C199.944 45.7224 199.944 45.7224 200.607 47.0102C201.76 49.0861 203.505 50.1418 205.464 51.5469C206.534 52.5467 206.534 52.5467 206.534 54.5939C206.938 54.7427 207.341 54.8915 207.758 55.0443C210.043 56.2707 211.536 57.8532 213.307 59.6698C213.96 60.3304 214.613 60.991 215.286 61.6714C216.785 63.4655 216.785 63.4655 216.785 65.5127C217.223 65.6956 217.661 65.8785 218.112 66.0669C219.727 66.8844 220.766 67.5907 221.911 68.9248C221.911 69.6004 221.911 70.276 221.911 70.9721C222.545 71.2253 222.545 71.2253 223.192 71.4839C225.095 72.4694 226.361 73.521 227.769 75.0667C227.769 75.7423 227.769 76.4179 227.769 77.1139C228.38 77.3248 228.38 77.3248 229.004 77.5405C231.408 78.8725 232.68 80.4865 234.359 82.5733C234.359 83.0237 234.359 83.4741 234.359 83.9382C234.97 84.1491 234.97 84.1491 235.594 84.3647C237.998 85.6968 239.27 87.3107 240.949 89.3976C240.949 89.848 240.949 90.2984 240.949 90.7624C241.376 90.9317 241.802 91.1002 242.242 91.2742C244.121 92.2535 245.223 93.3399 246.624 94.857C247.074 95.3353 247.523 95.8137 247.985 96.3071C249.004 97.5867 249.004 97.5867 249.004 98.9515C249.421 99.1105 249.838 99.2702 250.268 99.434C252.325 100.525 253.556 101.874 255.136 103.516C259.347 107.545 263.915 109.871 269.507 111.918C270.232 111.918 270.957 111.918 271.703 111.918C271.703 112.368 271.703 112.818 271.703 113.282C272.428 113.057 273.153 112.832 273.9 112.6C275.872 112.479 277.777 112.541 279.758 112.6C280 112.825 280.241 113.05 280.49 113.282C282.199 113.314 283.908 113.308 285.616 113.282C287.324 113.256 289.033 113.25 290.742 113.282C290.983 113.508 291.225 113.733 291.474 113.965C292.938 113.996 294.403 113.991 295.868 113.965C297.332 113.939 298.796 113.933 300.261 113.965C300.503 114.19 300.744 114.415 300.993 114.647C303.009 114.716 305.007 114.743 307.023 114.738C307.63 114.739 308.239 114.739 308.865 114.74C310.155 114.74 311.445 114.739 312.735 114.736C314.704 114.733 316.673 114.736 318.642 114.741C319.894 114.74 321.147 114.739 322.4 114.738C322.988 114.739 323.575 114.741 324.18 114.742C327.054 114.731 329.67 114.59 332.48 113.965C333.341 113.867 334.201 113.768 335.088 113.666C337.303 113.329 338.626 112.934 340.534 111.918C341.259 111.692 341.984 111.467 342.731 111.235C344.234 110.567 345.728 109.883 347.216 109.188C348.397 108.639 348.397 108.639 349.602 108.079C351.415 107.304 351.416 107.304 352.25 106.458C352.734 106.374 353.217 106.289 353.715 106.202C354.198 106.062 354.681 105.921 355.179 105.776C355.421 105.1 355.663 104.425 355.911 103.728C356.886 103.496 357.863 103.269 358.84 103.046C360.001 102.039 360.001 102.039 360.991 100.786C362.776 98.7311 364.617 97.1315 366.895 95.5394C367.378 95.089 367.862 94.6386 368.36 94.1745C368.36 93.4989 368.36 92.8233 368.36 92.1273C368.813 91.958 369.265 91.7895 369.733 91.6155C371.579 90.6034 371.863 89.8009 372.753 88.0327C373.84 87.3571 373.84 87.3571 374.95 86.6679C374.95 85.9923 374.95 85.3167 374.95 84.6206C375.916 84.1702 376.883 83.7198 377.879 83.2558C377.879 82.5802 377.879 81.9046 377.879 81.2085C378.845 80.7581 379.812 80.3077 380.808 79.8436C380.808 79.168 380.808 78.4924 380.808 77.7964C381.774 77.346 382.741 76.8956 383.737 76.4315C383.737 75.7559 383.737 75.0803 383.737 74.3842C384.205 74.215 384.673 74.0464 385.155 73.8724C386.809 73.1641 386.809 73.1641 387.032 71.6545C387.153 71.2041 387.273 70.7537 387.398 70.2897C387.82 70.1068 388.244 69.9239 388.679 69.7356C390.874 68.6553 391.792 67.1772 393.148 65.278C394.481 63.4852 396.172 62.2296 397.969 60.8641C400.099 59.1798 401.461 57.5959 402.775 55.2764C404.054 54.0842 405.357 53.0551 406.756 51.9925C408.886 50.3083 410.248 48.7244 411.562 46.4048C413.026 45.04 413.026 45.04 415.132 43.5045C417.38 41.7821 418.809 39.8392 420.349 37.5333C421.813 36.1685 421.813 36.1685 423.506 35.0166C425.527 33.3972 426.849 31.7901 428.321 29.7441C429.47 28.2189 430.731 27.2076 432.339 26.1027C434.453 24.4144 435.712 22.6585 437.191 20.4727C438.655 19.1079 438.655 19.1079 440.394 17.9136C442.508 16.2253 443.767 14.4694 445.245 12.2836C446.71 10.9188 446.71 10.9188 448.815 9.38333C451.063 7.66089 452.492 5.71803 454.032 3.41212C454.515 2.96172 454.999 2.51132 455.497 2.04727C456.476 3.72331 457.452 5.40071 458.426 7.08015C458.844 7.79533 458.844 7.79534 459.272 8.52485C461.355 12.1287 461.355 12.1287 461.355 13.6485C461.838 13.8737 462.321 14.0989 462.819 14.3309C463.326 15.6896 463.813 17.0551 464.284 18.4255C464.767 19.1011 465.25 19.7767 465.748 20.4727C465.905 21.3756 465.905 21.3756 466.066 22.2962C466.578 25.1002 467.606 27.5604 468.722 30.1973C470.874 35.3168 470.874 35.3168 470.874 36.8509C471.357 37.0761 471.84 37.3013 472.338 37.5333C472.993 39.6332 473.465 41.7514 473.963 43.8881C474.246 44.7964 474.246 44.7964 474.535 45.7224C475.018 45.9476 475.501 46.1728 475.999 46.4048C476.273 47.5363 476.511 48.6753 476.732 49.817C477.722 52.5228 478.862 55.174 479.981 57.8355C480.279 58.5629 480.578 59.2904 480.886 60.0397C481.176 60.7303 481.465 61.4209 481.763 62.1327C482.026 62.7646 482.29 63.3972 482.563 64.0482C483.181 65.6206 483.181 65.6206 484.786 66.1952C484.786 67.5464 484.786 68.8976 484.786 70.2897C485.27 70.5149 485.753 70.7401 486.251 70.9721C486.983 73.0194 486.983 73.0194 487.303 74.4695C487.439 74.892 487.575 75.3144 487.715 75.7491C488.199 75.9743 488.682 76.1995 489.18 76.4315C489.44 77.7936 489.682 79.1592 489.912 80.5261C490.396 81.4378 490.884 82.3475 491.377 83.2558C491.767 84.3579 492.132 85.4675 492.475 86.5826C492.662 87.1783 492.851 87.7734 493.044 88.3876C493.219 88.9458 493.393 89.5047 493.573 90.08C494.014 91.4585 494.483 92.8315 495.038 94.1745C495.521 94.3997 496.004 94.6249 496.502 94.857C496.502 95.7578 496.502 96.6586 496.502 97.5867C496.986 97.8119 497.469 98.0371 497.967 98.2691C498.234 99.4019 498.473 100.541 498.699 101.681C499.758 104.504 500.939 107.283 502.115 110.065C502.682 111.409 503.24 112.756 503.798 114.103C504.156 114.956 504.515 115.809 504.875 116.662C505.362 117.825 505.362 117.825 505.86 119.012C506.555 120.873 506.555 120.873 508.218 121.472C508.63 123.049 508.63 123.049 508.95 124.884C509.228 126.376 509.228 126.376 509.683 127.613C510.166 127.839 510.649 128.064 511.147 128.296C511.417 129.657 511.657 131.022 511.879 132.39C512.844 135.231 513.998 138.005 515.128 140.792C515.427 141.55 515.726 142.307 516.034 143.087C516.323 143.805 516.613 144.523 516.911 145.263C517.174 145.919 517.438 146.576 517.71 147.253C518.317 148.874 518.317 148.874 519.934 149.451C520.178 151.043 520.422 152.636 520.666 154.228C521.15 154.453 521.633 154.678 522.131 154.91C522.49 156.07 522.49 156.07 522.769 157.579C523.434 160.651 524.521 163.405 525.771 166.308C529.017 173.89 532.228 182.899 529.453 191.079C529.332 191.656 529.212 192.233 529.087 192.827C528.721 194.491 528.721 194.491 527.989 196.538C526.308 202.872 525.35 208.361 528.721 214.281C529.204 214.732 529.688 215.182 530.185 215.646C530.306 216.336 530.427 217.025 530.552 217.736C530.672 218.398 530.793 219.059 530.918 219.741C531.401 219.966 531.884 220.191 532.382 220.423C532.871 222.015 533.358 223.608 533.847 225.2C534.33 225.425 534.813 225.65 535.311 225.882C535.417 226.488 535.523 227.093 535.631 227.717C536.078 230.167 537.013 231.88 538.24 234.072C538.345 234.483 538.45 234.895 538.558 235.319C539.278 237.896 540.64 240.228 541.858 242.628C542.634 244.308 542.634 244.308 542.634 245.673C543.117 245.898 543.6 246.123 544.098 246.355C544.83 248.402 544.83 248.402 545.141 249.666C546.081 252.934 547.735 256.01 549.178 259.108C549.679 260.204 549.678 260.204 550.189 261.322C550.512 262.015 550.834 262.709 551.166 263.424C551.46 264.061 551.754 264.697 552.058 265.353C552.745 266.93 552.745 266.93 554.349 267.51C554.486 268.376 554.486 268.376 554.624 269.259C555.114 271.771 556.025 273.53 557.324 275.747C558.011 277.064 558.011 277.064 558.377 278.552C558.498 278.961 558.618 279.372 558.743 279.794C559.226 280.019 559.709 280.244 560.207 280.476C560.593 281.742 560.593 281.742 560.894 283.334C561.477 286.066 562.45 288.248 563.869 290.713C563.869 291.163 563.869 291.614 563.869 292.078C564.352 292.303 564.835 292.528 565.333 292.76C565.583 293.896 565.827 295.034 566.065 296.172C566.549 296.623 567.032 297.073 567.53 297.537C568.05 298.781 568.05 298.781 568.537 300.28C569.708 303.705 571.143 306.986 572.656 310.29C572.907 310.846 573.158 311.402 573.417 311.976C574.772 314.953 576.229 317.848 577.781 320.739C577.898 321.232 578.023 321.725 578.147 322.233C578.411 323.548 578.411 323.548 579.612 324.407C580.71 325.516 580.71 325.516 581.032 327.368C581.464 329.745 582.241 331.636 583.273 333.844C583.639 334.625 583.998 335.406 584.371 336.211C584.745 337.017 585.126 337.823 585.514 338.653C586.268 340.262 587.015 341.872 587.762 343.483C588.091 344.194 588.428 344.903 588.772 345.635C589.497 347.354 589.497 347.354 589.497 348.719C589.98 348.944 590.464 349.169 590.962 349.401C591.408 350.577 591.408 350.577 591.833 352.173C593.012 356.122 594.755 359.767 596.571 363.487C598.284 367.014 598.284 367.014 598.284 368.509C598.767 368.734 599.251 368.959 599.749 369.192C600.4 370.934 600.876 372.696 601.374 374.48C601.777 376.135 601.777 376.135 603.41 376.698C603.695 378.106 603.783 379.492 603.893 380.921C603.974 381.329 604.054 381.737 604.142 382.158C604.625 382.383 605.109 382.608 605.607 382.84C606.156 384.111 606.156 384.111 606.661 385.783C606.939 386.695 606.939 386.695 607.217 387.625C608.191 391.024 609.114 394.434 610 397.853C609.385 397.95 609.385 397.95 608.763 398.048C606.639 398.66 605.204 399.658 603.41 400.882C601.264 402.344 599.207 403.588 596.82 404.678C596.3 405.185 596.3 405.185 595.765 405.701C594.308 407.009 592.851 407.444 590.962 408.09C589.307 408.812 587.769 409.602 586.202 410.478C584.642 411.352 583.068 412.108 581.442 412.867C580.835 413.204 580.234 413.542 579.612 413.89C578.045 414.765 576.485 415.521 574.852 416.279C573.937 416.749 573.018 417.225 572.106 417.708C571.6 417.974 571.094 418.241 570.573 418.515C570.052 418.791 569.531 419.066 568.994 419.35C567.957 419.898 566.92 420.445 565.882 420.992C565.425 421.233 564.968 421.475 564.498 421.724C563.085 422.447 561.651 423.119 560.207 423.785C556.687 425.532 556.687 425.532 553.617 427.88C553.134 427.88 552.651 427.88 552.153 427.88C551.677 428.366 551.677 428.366 551.191 428.861C549.956 429.927 549.956 429.927 548.289 430.21C546.001 430.668 544.441 431.478 542.451 432.615C541.813 432.972 541.174 433.331 540.517 433.699C538.889 434.588 538.889 434.588 538.24 436.069C537.268 436.311 536.291 436.537 535.311 436.752C534.586 437.202 533.861 437.652 533.114 438.116C531.897 438.578 530.676 439.033 529.453 439.481C526.633 440.752 523.859 442.104 521.078 443.447C520.328 443.804 519.578 444.159 518.806 444.526C514.22 446.724 514.22 446.724 510.115 449.597C508.053 451.211 507.134 451.353 504.557 451.765C502.653 452.662 500.819 453.588 498.974 454.58C497.809 455.196 496.644 455.812 495.479 456.427C494.835 456.768 494.191 457.109 493.528 457.46C491.119 458.724 488.694 459.963 486.268 461.199C484.934 461.88 483.6 462.562 482.267 463.245C481.39 463.692 480.514 464.137 479.636 464.582C475.14 466.86 471.049 469.082 467.212 472.238C466.472 472.463 465.733 472.688 464.97 472.92C460.238 474.421 458.015 478.502 455.68 482.346C455.366 482.852 455.054 483.358 454.731 483.88C453.76 485.455 452.797 487.035 451.835 488.616C451.232 489.598 450.629 490.581 450.025 491.564C447.052 496.427 444.194 501.316 441.584 506.359C440.469 508.476 439.233 510.482 437.923 512.501C437.681 512.951 437.439 513.401 437.191 513.865C436.707 514.541 436.224 515.217 435.726 515.913C435.484 516.363 435.243 516.814 434.994 517.278C434.616 517.601 434.239 517.925 433.849 518.259C432.549 519.334 432.549 519.334 432.797 521.372C431.965 522.147 431.098 522.888 430.234 523.632C428.422 525.449 428.25 525.961 427.671 528.196C426.161 529.049 426.161 529.049 424.742 529.561C424.742 530.237 424.742 530.912 424.742 531.608C422.894 533.699 421.644 534.4 418.884 535.021C418.643 535.696 418.401 536.372 418.152 537.068C417.427 537.068 416.702 537.068 415.955 537.068C415.714 537.743 415.472 538.419 415.223 539.115C414.498 539.115 413.773 539.115 413.026 539.115C411.736 539.715 411.736 539.715 410.435 540.56C409.95 540.861 409.465 541.163 408.965 541.474C408.462 541.794 407.961 542.113 407.443 542.442C406.935 542.756 406.428 543.07 405.904 543.394C403.173 544.974 403.173 544.974 401.311 547.304C400.676 547.431 400.676 547.431 400.029 547.56C398.242 547.912 398.242 547.912 396.643 549.309C394.543 550.846 392.85 551.311 390.327 552.081C388.959 552.68 387.605 553.307 386.265 553.958C385.526 554.317 384.787 554.676 384.025 555.046C383.266 555.418 382.506 555.792 381.723 556.176C380.952 556.549 380.181 556.922 379.386 557.306C375.44 559.125 375.44 559.125 372.021 561.635C370.465 561.379 370.465 561.379 369.092 560.953C367.851 556.902 369.082 553.814 370.419 549.949C370.619 549.339 370.82 548.729 371.027 548.101C372.525 543.623 372.525 543.623 373.533 541.8C374.368 540.36 374.368 540.36 374.584 538.092C374.917 535.919 375.397 534.87 376.414 532.973C376.535 532.143 376.656 531.312 376.78 530.457C376.901 529.711 377.022 528.965 377.147 528.196C377.63 527.971 378.113 527.746 378.611 527.514C378.861 526.178 378.861 526.178 378.911 524.566C379.277 520.372 380.497 516.582 381.86 512.586C382.089 511.891 382.318 511.196 382.554 510.48C384.259 505.374 384.259 505.374 385.255 503.57C386.096 502.123 386.096 502.123 386.3 499.747C386.42 499.002 386.541 498.256 386.666 497.487C387.149 497.262 387.632 497.037 388.13 496.805C388.446 495.446 388.446 495.446 388.542 493.862C388.77 491.238 389.04 488.947 390.336 486.579C391.106 485.115 391.38 483.91 391.654 482.303C392.314 479.01 393.283 475.857 394.354 472.664C394.511 472.193 394.667 471.722 394.829 471.237C395.445 469.427 396.065 467.682 396.986 465.984C397.801 464.445 398.072 463.007 398.382 461.319C398.806 459.005 399.427 457.255 400.578 455.177C401.201 453.186 401.585 451.157 401.997 449.12C402.55 446.504 403.276 444.043 404.24 441.528C404.36 441.05 404.481 440.572 404.606 440.078C405.023 438.62 405.695 437.408 406.436 436.069C407.091 434.238 407.505 432.499 407.901 430.61C408.359 428.595 409.085 426.979 410.097 425.15C410.906 422.889 411.496 420.64 412.068 418.318C414.304 409.524 417.322 400.975 420.349 392.394C420.591 392.844 420.832 393.295 421.081 393.759C421.564 393.759 422.048 393.759 422.546 393.759C424.032 395.754 424.98 397.522 425.475 399.901C425.759 401.363 425.759 401.363 426.207 402.63C426.69 402.856 427.173 403.081 427.671 403.313C428.16 404.905 428.647 406.498 429.136 408.09C429.619 408.315 430.102 408.54 430.6 408.772C430.933 410.214 431.264 411.656 431.578 413.101C432.45 416.347 433.983 419.335 435.451 422.378C436.058 423.648 436.663 424.92 437.265 426.192C437.532 426.746 437.798 427.301 438.074 427.872C438.655 429.245 438.655 429.245 438.655 430.61C439.138 430.61 439.622 430.61 440.119 430.61C440.361 430.835 440.603 431.06 440.852 431.292C442.358 430.663 443.56 430.153 444.681 429.007C446.502 427.424 448.54 426.49 450.737 425.406C451.575 424.989 452.413 424.572 453.277 424.142C455.497 423.103 455.497 423.103 457.693 422.421C458.147 422.083 458.599 421.745 459.066 421.397C460.82 420.244 462.178 419.963 464.284 419.691C464.284 419.241 464.284 418.79 464.284 418.326C464.933 418.157 465.583 417.988 466.251 417.814C468.705 417.084 468.705 417.084 470.508 415.596C472.529 414.09 474.293 413.608 476.732 412.867C477.094 412.529 477.457 412.191 477.83 411.843C478.928 410.819 478.928 410.819 481.034 410.179C483.388 409.569 483.388 409.569 485.198 408.047C486.983 406.725 486.983 406.725 488.859 406.384C490.733 406.188 490.733 406.188 491.92 404.813C493.901 403.016 495.933 401.992 498.378 400.796C499.21 400.386 500.042 399.975 500.899 399.551C503.092 398.536 503.092 398.536 505.289 397.853C505.727 397.53 506.165 397.206 506.616 396.872C508.218 395.806 508.218 395.806 510.46 395.124C512.589 394.613 512.589 394.613 513.71 393.418C515.286 391.949 517.105 391.653 519.202 391.029C519.685 390.579 520.168 390.128 520.666 389.664C518.866 386.593 516.595 384.121 514.121 381.517C513.265 380.606 512.409 379.695 511.553 378.783C510.903 378.092 510.903 378.092 510.24 377.388C494.305 360.429 494.306 360.429 494.306 358.273C495.747 357.082 497.182 355.961 498.699 354.861C499.212 354.48 499.726 354.1 500.255 353.709C501.641 352.804 503.036 352.134 504.557 351.448C505.282 350.998 506.007 350.548 506.754 350.084C509.683 348.264 512.612 346.444 515.541 344.624C516.024 344.174 516.507 343.723 517.005 343.259C517.737 342.577 517.737 342.577 519.934 341.895C520.417 341.444 520.901 340.994 521.399 340.53C522.131 339.847 522.131 339.847 524.327 339.165C527.45 337.96 530.004 335.922 532.382 333.705C532.412 332.341 532.413 330.976 532.382 329.611C531.899 329.386 531.416 329.161 530.918 328.928C530.918 328.028 530.918 327.127 530.918 326.199C530.434 325.974 529.951 325.748 529.453 325.516C528.986 323.943 528.706 322.367 528.4 320.761C528.265 320.303 528.129 319.846 527.989 319.375C527.505 319.149 527.022 318.924 526.524 318.692C525.821 317.331 525.821 317.331 525.1 315.563C524.84 314.927 524.581 314.293 524.313 313.638C524.046 312.969 523.779 312.301 523.504 311.612C523.231 310.949 522.958 310.285 522.677 309.602C520.666 304.632 520.666 304.632 520.666 302.314C520.183 302.089 519.7 301.864 519.202 301.632C519.202 300.731 519.202 299.83 519.202 298.902C518.719 298.677 518.235 298.451 517.737 298.219C517.031 296.678 517.031 296.678 516.318 294.722C515.199 291.728 513.981 288.837 512.612 285.936C511.655 283.869 511.147 282.739 511.147 280.476C510.664 280.251 510.181 280.026 509.683 279.794C509.439 278.429 509.194 277.064 508.95 275.699C508.467 275.474 507.984 275.249 507.486 275.017C507.486 274.116 507.486 273.215 507.486 272.287C507.003 272.062 506.519 271.837 506.021 271.605C505.236 270.065 504.52 268.531 503.825 266.956C495.585 248.946 485.048 231.867 471.686 216.715C470.874 215.646 470.874 215.646 470.874 214.281C470.44 214.108 470.007 213.935 469.561 213.756C467.767 212.824 466.82 211.873 465.519 210.4C463.357 208.005 461.075 205.816 458.634 203.666C457.693 202.68 457.693 202.68 457.693 201.315C457.082 201.062 457.082 201.062 456.457 200.803C454.454 199.794 452.804 198.63 451.103 197.221C451.103 196.77 451.103 196.32 451.103 195.856C450.559 195.701 450.016 195.546 449.456 195.386C447.068 194.324 446.029 193.068 444.513 191.079C445.52 189.057 446.713 187.379 448.174 185.619C448.657 184.944 449.141 184.268 449.639 183.572C450.386 183.234 450.386 183.234 451.149 182.89C452.826 182.278 452.826 182.278 453.3 180.16C454.276 179.705 455.253 179.25 456.229 178.795C457.428 177.458 457.428 177.458 458.426 176.065C458.909 175.615 459.392 175.165 459.89 174.701C460.373 174.025 460.857 173.349 461.355 172.653C461.732 172.344 462.109 172.034 462.498 171.715C463.869 170.272 463.9 169.072 464.284 167.194C464.827 166.37 464.827 166.37 465.382 165.53C466.623 163.554 466.89 161.94 467.212 159.687C467.454 159.237 467.696 158.786 467.945 158.322C468.12 156.236 468.08 154.144 468.082 152.052C468.091 151.48 468.1 150.908 468.109 150.318C468.118 146.807 467.647 143.949 466.48 140.579C466.278 139.634 466.082 138.686 465.891 137.738C464.932 133.614 463.066 129.847 461.263 125.993C460.586 124.538 459.913 123.083 459.243 121.626C458.946 120.99 458.649 120.354 458.342 119.698C457.693 118.059 457.693 118.059 457.693 116.012C457.21 115.787 456.727 115.562 456.229 115.33C455.605 113.842 455.605 113.842 455.039 112.003C454.849 111.4 454.657 110.796 454.461 110.174C454.032 108.505 454.032 108.505 454.032 106.458C453.549 106.233 453.066 106.008 452.568 105.776C452.809 105.325 453.051 104.875 453.3 104.411C452.817 104.186 452.333 103.961 451.835 103.728C452.077 103.278 452.319 102.828 452.568 102.364C452.084 102.138 451.601 101.913 451.103 101.681C451.345 101.231 451.586 100.78 451.835 100.316C451.352 100.091 450.869 99.866 450.371 99.6339C450.613 99.1835 450.854 98.7331 451.103 98.2691C450.62 98.2691 450.137 98.2691 449.639 98.2691C449.88 97.3683 450.122 96.4675 450.371 95.5394C449.888 95.3142 449.404 95.089 448.906 94.857C449.148 94.4066 449.39 93.9562 449.639 93.4921C449.155 93.2669 448.672 93.0417 448.174 92.8097C448.416 92.3593 448.657 91.9089 448.906 91.4448C448.423 91.2196 447.94 90.9944 447.442 90.7624C447.684 90.312 447.925 89.8616 448.174 89.3976C447.691 89.1724 447.208 88.9472 446.71 88.7152C446.43 87.5851 446.187 86.4461 445.977 85.303C445.736 84.8526 445.494 84.4022 445.245 83.9382C445.487 83.4878 445.728 83.0374 445.977 82.5733C445.494 82.3481 445.011 82.1229 444.513 81.8909C443.915 80.2299 443.915 80.2299 443.368 78.1799C442.681 75.5287 442.681 75.5287 441.584 73.0194C439.371 74.2048 439.371 74.2048 437.191 75.7491C437.07 76.1995 436.949 76.6499 436.824 77.1139C436.227 79.3421 434.044 79.9788 432.065 81.2085C431.8 82.1134 431.554 83.0231 431.333 83.9382C430.112 84.6206 428.892 85.303 427.671 85.9855C427.566 86.4215 427.46 86.8583 427.351 87.308C426.689 89.5675 424.571 90.1994 422.546 91.4448C422.546 92.1204 422.546 92.796 422.546 93.4921C422.092 93.647 421.639 93.8019 421.173 93.9616C419.161 95.119 418.983 96.258 418.152 98.2691C417.427 98.4943 416.702 98.7195 415.955 98.9515C414.307 100.546 414.307 100.546 412.66 102.492C412.094 103.135 411.528 103.778 410.944 104.44C409.406 106.406 408.262 108.348 407.169 110.553C406.685 110.553 406.202 110.553 405.704 110.553C404.342 112.322 403.088 114.063 402.043 116.012C401.311 116.695 400.578 117.377 399.846 118.059C399.604 118.51 399.363 118.96 399.114 119.424C398.382 120.107 397.649 120.789 396.917 121.472C396.675 121.922 396.434 122.372 396.185 122.836C395.453 123.519 394.72 124.201 393.988 124.884C393.169 126.329 393.169 126.329 392.524 128.296C392.04 128.296 391.557 128.296 391.059 128.296C391.195 128.816 391.331 129.337 391.471 129.874C391.791 131.708 391.791 131.708 391.059 133.755C390.842 135.354 390.689 136.954 390.533 138.559C390.327 139.897 390.327 139.897 389.595 140.579C389.618 141.943 389.644 143.306 389.712 144.668C389.595 146.039 389.595 146.039 388.13 148.086C387.905 149.421 387.694 150.758 387.489 152.095C386.813 154.817 386.491 155.928 383.965 157.499C381.632 158.365 381.632 158.365 379.349 159.029C376.41 159.908 374.202 161.066 372.021 163.099C371.289 163.782 371.289 163.782 369.87 163.995C368.219 164.324 368.219 164.324 367.627 165.829C367.386 166.279 367.144 166.73 366.895 167.194C366.412 167.292 365.929 167.391 365.431 167.493C364.947 167.619 364.464 167.746 363.966 167.876C363.456 169.005 362.97 170.144 362.502 171.288C360.991 172.44 360.991 172.44 359.573 173.336C359.331 173.786 359.089 174.237 358.84 174.701C358.388 175.199 357.936 175.696 357.47 176.209C352.542 182.226 348.903 191.676 349.321 199.268C349.08 199.718 348.838 200.169 348.589 200.633C348.402 202.002 348.217 203.373 348.063 204.746C347.857 206.092 347.857 206.092 347.125 208.139C346.641 208.139 346.158 208.139 345.66 208.139C345.902 209.265 346.143 210.391 346.392 211.552C345.909 211.552 345.426 211.552 344.928 211.552C345.064 212.059 345.199 212.565 345.339 213.087C345.654 214.93 345.551 215.95 344.928 217.693C344.445 217.693 343.961 217.693 343.463 217.693C343.614 218.228 343.765 218.763 343.921 219.314C344.012 219.905 344.102 220.497 344.196 221.105C343.712 221.556 343.229 222.006 342.731 222.47C341.649 225.472 341.179 228.482 341.267 231.641C341.267 232.443 341.267 233.245 341.267 234.072C340.783 234.522 340.3 234.972 339.802 235.436C339.345 236.942 338.958 238.468 338.612 240C338.422 240.819 338.231 241.638 338.034 242.482C337.611 244.956 337.585 247.269 337.605 249.767C337.364 249.992 337.122 250.218 336.873 250.45C336.705 251.816 336.537 253.183 336.375 254.55C336.106 256.108 335.45 257.245 334.676 258.639C334.676 259.202 334.676 259.765 334.676 260.345C334.676 262.261 334.116 263.096 333.212 264.781C333.181 265.918 333.181 267.056 333.212 268.193C332.999 269.109 332.765 270.023 332.48 270.922C331.996 270.922 331.513 270.922 331.015 270.922C330.92 271.536 330.92 271.536 330.823 272.162C329.867 277.909 328.531 283.556 327.117 289.22C326.255 292.779 325.772 295.942 325.889 299.584C325.648 299.809 325.406 300.035 325.157 300.267C324.989 301.632 324.821 302.998 324.659 304.364C324.391 305.924 323.756 307.071 322.961 308.456C322.961 309.357 322.961 310.257 322.961 311.185C322.477 311.185 321.994 311.185 321.496 311.185C321.738 312.311 321.979 313.437 322.228 314.598C321.745 314.598 321.262 314.598 320.764 314.598C320.9 315.105 321.035 315.611 321.175 316.133C321.49 317.976 321.387 318.996 320.764 320.739C320.281 320.739 319.797 320.739 319.299 320.739C319.435 321.26 319.571 321.781 319.711 322.317C320.144 324.795 319.266 326.281 318.338 328.63C317.172 331.896 316.321 335.214 315.5 338.568C315.37 339.089 315.239 339.61 315.104 340.148C314.353 343.298 314.115 346.157 314.174 349.401C313.932 349.626 313.69 349.852 313.441 350.084C313.172 351.672 312.927 353.265 312.709 354.861C312.226 354.861 311.743 354.861 311.245 354.861C311.381 355.368 311.516 355.874 311.656 356.396C311.971 358.239 311.868 359.26 311.245 361.002C310.761 361.002 310.278 361.002 309.78 361.002C309.916 361.523 310.052 362.044 310.192 362.58C310.512 364.415 310.512 364.415 309.78 366.462C309.675 367.165 309.569 367.869 309.459 368.594C309.324 369.242 309.188 369.889 309.048 370.556C308.565 370.782 308.081 371.007 307.583 371.239C307.243 372.532 307.243 372.532 307.126 374.011C307.035 374.898 306.944 375.784 306.851 376.698C305.469 376.525 305.469 376.525 303.922 376.016C303.13 374.803 303.13 374.803 302.595 373.328C302.409 372.844 302.223 372.359 302.032 371.86C301.725 370.556 301.725 370.556 302.458 369.192C301.974 368.966 301.491 368.741 300.993 368.509C301.235 368.059 301.476 367.608 301.725 367.144C301.242 367.144 300.759 367.144 300.261 367.144C300.503 366.243 300.744 365.343 300.993 364.415C300.51 364.189 300.027 363.964 299.529 363.732C299.239 362.146 299 360.553 298.796 358.955C298.398 357.258 297.872 355.631 297.332 353.965C296.622 351.527 296.25 349.169 295.868 346.672C295.534 345.586 295.2 344.501 294.852 343.419C294.217 341.262 293.691 339.088 293.167 336.905C292.968 336.076 292.769 335.248 292.564 334.396C292.206 332.341 292.206 332.341 292.939 330.976C292.455 330.976 291.972 330.976 291.474 330.976C291.429 330.556 291.385 330.136 291.339 329.704C291.248 328.877 291.248 328.877 291.153 328.033C291.094 327.487 291.035 326.94 290.973 326.378C290.776 324.724 290.776 324.724 290.01 322.787C290.251 322.336 290.493 321.886 290.742 321.422C290.259 321.422 289.775 321.422 289.277 321.422C289.233 321.002 289.189 320.582 289.143 320.15C289.051 319.323 289.051 319.323 288.957 318.479C288.897 317.933 288.838 317.386 288.776 316.824C288.579 315.17 288.579 315.17 287.813 313.233C288.054 312.782 288.296 312.332 288.545 311.868C288.062 311.643 287.579 311.417 287.081 311.185C286.829 309.92 286.829 309.92 286.714 308.327C286.459 305.671 285.825 303.477 284.884 300.949C284.641 299.885 284.414 298.819 284.197 297.75C283.676 295.194 283.029 292.707 282.275 290.201C280.214 283.297 280.214 283.297 281.223 280.476C280.739 280.476 280.256 280.476 279.758 280.476C280 279.576 280.241 278.675 280.49 277.747C280.007 277.747 279.524 277.747 279.026 277.747C278.202 273.14 278.202 273.14 279.026 271.605C278.543 271.38 278.059 271.154 277.561 270.922C277.35 269.563 277.142 268.202 277.009 266.833C276.86 265.324 276.86 265.325 276.097 263.416C275.848 262.052 275.604 260.687 275.365 259.321C274.955 257.628 274.439 255.994 273.9 254.331C273.191 251.893 272.819 249.535 272.436 247.038C272.103 245.951 271.769 244.865 271.42 243.782C270.788 241.64 270.259 239.481 269.735 237.313C269.536 236.493 269.337 235.673 269.132 234.828C268.774 232.707 268.774 232.707 269.507 230.659C269.023 230.659 268.54 230.659 268.042 230.659C268.284 229.759 268.526 228.858 268.774 227.93C268.291 227.93 267.808 227.93 267.31 227.93C267.265 227.51 267.221 227.09 267.175 226.658C267.084 225.831 267.084 225.831 266.989 224.987C266.93 224.44 266.871 223.894 266.809 223.332C266.612 221.678 266.612 221.678 265.846 219.741C266.087 219.29 266.329 218.84 266.578 218.376C266.094 218.376 265.611 218.376 265.113 218.376C265.069 217.964 265.025 217.552 264.979 217.128C264.918 216.583 264.856 216.037 264.793 215.475C264.733 214.937 264.674 214.399 264.612 213.844C264.287 211.577 263.651 209.511 262.917 207.329C262.361 205.355 262.047 203.741 261.864 201.742C261.58 198.959 260.816 196.555 259.807 193.931C259.293 192.547 258.888 191.181 258.523 189.756C256.129 180.651 252.65 171.279 243.878 165.829C243.878 165.379 243.878 164.928 243.878 164.464C243.153 164.464 242.428 164.464 241.681 164.464C241.681 164.014 241.681 163.563 241.681 163.099C240.957 163.099 240.232 163.099 239.485 163.099C238.753 162.417 238.02 161.735 237.288 161.052C234.174 159.447 231.477 158.552 227.997 158.024C227.439 157.897 226.88 157.77 226.304 157.64C226.063 157.19 225.821 156.739 225.572 156.275C223.722 155.827 223.722 155.827 221.911 155.593C221.632 154.005 221.389 152.412 221.179 150.816C221.42 150.591 221.662 150.365 221.911 150.133C221.984 148.349 222.013 146.586 222.002 144.802C222.005 144.307 222.008 143.812 222.011 143.302C222.006 140.934 221.974 138.746 221.179 136.485C220.365 133.907 220.365 133.907 221.179 132.39C220.695 132.165 220.212 131.94 219.714 131.708C219.956 131.257 220.197 130.807 220.446 130.343C219.963 130.118 219.48 129.893 218.982 129.661C219.224 129.21 219.465 128.76 219.714 128.296C219.231 128.071 218.748 127.845 218.25 127.613C217.605 126.435 217.002 125.236 216.419 124.031C213.016 117.524 208.242 111.84 202.604 106.866C201.305 105.682 200.152 104.427 198.982 103.131C197.006 100.987 194.898 99.1133 192.621 97.2455C189.902 95.0098 187.463 92.721 185.133 90.136C183.669 88.5336 182.127 87.0111 180.585 85.4736C177.032 81.8206 174.205 77.8687 171.386 73.7018C169.602 75.3649 169.085 76.815 168.177 79.009C167.851 79.7959 167.526 80.5827 167.19 81.3934C166.853 82.2192 166.516 83.0449 166.169 83.8959C165.655 85.1297 165.655 85.1297 165.131 86.3894C163.278 90.5106 163.278 90.5106 162.599 94.857C162.116 94.857 161.633 94.857 161.135 94.857C161.157 95.8281 161.157 95.8281 161.18 96.8189C161.135 98.9515 161.135 98.9515 160.402 100.316C159.919 100.316 159.436 100.316 158.938 100.316C158.822 100.698 158.706 101.08 158.586 101.473C157.219 105.852 155.602 110.111 153.875 114.378C153.061 116.749 152.69 119.008 152.348 121.472C152.106 121.922 151.864 122.372 151.616 122.836C151.132 122.836 150.649 122.836 150.151 122.836C150.393 123.512 150.634 124.188 150.883 124.884C150.4 124.884 149.917 124.884 149.419 124.884C149.392 125.295 149.364 125.707 149.336 126.131C149.264 126.949 149.264 126.949 149.19 127.784C149.147 128.322 149.105 128.861 149.061 129.416C148.687 131.025 148.687 131.025 147.648 132.286C146.414 133.851 145.815 135.201 145.154 137.037C144.818 137.97 144.818 137.97 144.475 138.922C144.248 139.568 144.023 140.213 143.789 140.878C143.555 141.52 143.321 142.163 143.079 142.825C142.857 143.448 142.636 144.072 142.408 144.714C142.208 145.279 142.006 145.844 141.8 146.426C141.341 148.176 141.286 149.704 141.364 151.498C140.881 151.723 140.398 151.949 139.9 152.181C139.922 152.962 139.922 152.962 139.945 153.758C139.9 155.593 139.9 155.593 139.167 157.64C139.449 160.271 140.089 161.31 142.096 163.099C142.096 163.775 142.096 164.451 142.096 165.147C142.821 165.372 143.546 165.597 144.293 165.829C144.807 166.956 145.296 168.094 145.758 169.241C146.241 169.466 146.724 169.692 147.222 169.924C147.539 170.578 147.539 170.578 147.863 171.246C148.556 172.76 148.556 172.76 150.151 173.293C152.161 174.288 152.285 175.502 153.08 177.43C153.805 177.656 154.53 177.881 155.277 178.113C155.277 178.788 155.277 179.464 155.277 180.16C155.688 180.318 156.1 180.475 156.524 180.637C158.649 181.759 160.033 183.133 161.684 184.809C162.269 185.391 162.854 185.972 163.457 186.571C164.952 188.557 165.138 189.397 164.796 191.761C164.247 193.297 164.247 193.297 163.331 194.491C162.878 194.589 162.425 194.688 161.958 194.79C159.626 195.364 158.898 196.815 157.473 198.585C155.561 200.462 153.615 202.155 151.432 203.746C149.321 205.49 149.274 205.793 148.687 208.139C147.466 208.822 146.246 209.504 145.025 210.187C144.76 211.092 144.515 212.001 144.293 212.916C142.782 213.769 142.782 213.769 141.364 214.281C141.364 214.957 141.364 215.632 141.364 216.328C140.639 216.554 139.914 216.779 139.167 217.011C139.167 217.687 139.167 218.362 139.167 219.058C138.442 219.283 137.718 219.509 136.971 219.741C135.943 220.8 135.943 220.8 135.02 222.124C134.667 222.605 134.314 223.086 133.95 223.582C133.406 224.341 133.406 224.341 132.852 225.115C132.483 225.615 132.115 226.116 131.737 226.632C129.639 229.514 129.639 229.514 128.184 232.707C126.445 235.137 124.624 237.511 122.806 239.891C121.767 241.337 120.916 242.735 120.129 244.308C119.397 245.673 119.397 245.673 117.932 247.72C117.691 248.17 117.449 248.621 117.2 249.085C116.717 249.535 116.234 249.986 115.736 250.45C115.736 251.125 115.736 251.801 115.736 252.497C115.013 253.188 114.278 253.869 113.539 254.544C112.714 255.816 111.932 257.111 111.179 258.42C110.728 259.203 110.276 259.986 109.811 260.793C109.329 261.639 108.848 262.484 108.367 263.33C108.125 263.756 107.882 264.18 107.631 264.618C100.301 277.01 100.301 277.01 94.5005 290.03C93.6277 291.672 92.7417 293.305 91.8461 294.936C89.7021 298.885 87.6665 302.866 85.759 306.92C85.5437 307.375 85.3284 307.83 85.1066 308.299C83.8522 310.998 83.0058 313.515 82.4185 316.389C82.0524 318.01 82.0524 318.01 81.3201 319.375C80.8369 319.375 80.3536 319.375 79.8557 319.375C79.8557 320.501 79.8557 321.627 79.8557 322.787C79.3724 323.012 78.8891 323.237 78.3912 323.469C77.6831 325.144 77.0563 326.79 76.469 328.502C76.3013 328.97 76.1329 329.438 75.9601 329.92C75.2513 331.941 74.73 333.614 74.73 335.753C79.4236 339.849 85.6279 342.335 91.3687 344.915C93.8071 346.013 96.2337 347.133 98.6597 348.255C99.3648 348.581 99.3648 348.581 100.084 348.914C110.434 353.73 110.434 353.73 115.003 356.908C115.245 357.583 115.487 358.259 115.736 358.955C115.252 359.631 114.769 360.306 114.271 361.002C114.059 361.467 113.848 361.931 113.63 362.41C112.807 363.732 112.807 363.732 111.296 364.415C110.828 364.64 110.36 364.865 109.878 365.097C109.719 365.751 109.719 365.751 109.557 366.42C108.95 368.495 107.406 368.818 105.484 369.874C105.484 370.55 105.484 371.225 105.484 371.921C105.031 372.076 104.578 372.231 104.111 372.391C102.389 373.183 102.389 373.183 101.823 374.992C100.922 377.093 100.244 377.093 98.1617 378.063C97.9201 378.626 97.6785 379.189 97.4295 379.769C96.5354 381.853 95.8471 381.902 93.7683 382.84C93.6475 383.29 93.5266 383.741 93.4022 384.205C93.2813 384.655 93.1605 385.106 93.036 385.57C92.0658 386.036 91.089 386.491 90.1071 386.935C89.2738 388.31 89.2738 388.31 88.6426 389.664C89.1822 389.941 89.7219 390.218 90.2784 390.504C106.479 398.824 122.665 407.168 138.801 415.596C139.903 416.171 139.903 416.171 141.027 416.756C144.696 418.67 148.364 420.588 152.025 422.515C153.853 423.476 155.683 424.434 157.514 425.391C158.396 425.853 159.278 426.317 160.158 426.782C161.379 427.428 162.604 428.067 163.829 428.706C164.879 429.258 164.879 429.258 165.951 429.821C167.728 430.756 167.728 430.756 169.922 430.61C170.639 428.699 170.639 428.699 170.994 427.251C171.405 425.763 171.94 424.367 172.53 422.932C172.826 422.209 172.826 422.209 173.128 421.471C173.278 421.109 173.428 420.747 173.583 420.373C174.066 420.373 174.549 420.373 175.047 420.373C175.138 419.74 175.228 419.107 175.322 418.454C175.78 416.279 175.78 416.279 177.244 414.232C177.76 412.876 178.248 411.51 178.709 410.137C179.387 408.24 180.15 406.404 180.951 404.549C181.216 403.934 181.482 403.32 181.755 402.686C181.957 402.217 182.16 401.749 182.37 401.265C182.853 401.265 183.336 401.265 183.834 401.265C184.076 399.689 184.318 398.113 184.566 396.488C185.05 396.488 185.533 396.488 186.031 396.488C186.122 395.855 186.212 395.222 186.306 394.57C186.763 392.394 186.763 392.394 188.228 390.347C188.469 389.896 188.711 389.446 188.96 388.982C190.455 391.199 191.628 393.358 192.621 395.806C192.863 396.256 193.104 396.707 193.353 397.171C193.112 397.847 192.87 398.522 192.621 399.218C193.104 399.443 193.588 399.669 194.086 399.901C194.086 401.252 194.086 402.603 194.086 403.995C194.569 404.22 195.052 404.446 195.55 404.678C195.309 405.353 195.067 406.029 194.818 406.725C195.301 406.95 195.784 407.175 196.282 407.407C196.041 408.083 195.799 408.758 195.55 409.455C196.033 409.68 196.517 409.905 197.015 410.137C197.747 412.184 197.747 412.184 197.015 414.232C197.498 414.457 197.981 414.682 198.479 414.914C199.162 416.823 199.568 418.609 199.944 420.586C200.072 421.251 200.201 421.915 200.332 422.599C200.598 424.042 200.827 425.492 201.042 426.942C201.163 427.477 201.284 428.011 201.408 428.562C201.891 428.788 202.375 429.013 202.873 429.245C203.07 430.53 203.259 431.816 203.402 433.107C203.615 434.786 203.925 436.418 204.291 438.074C204.404 438.587 204.516 439.1 204.631 439.628C204.951 440.991 204.951 440.991 206.534 441.528C206.292 442.204 206.051 442.88 205.802 443.576C206.285 443.801 206.768 444.026 207.266 444.258C207.024 444.709 206.783 445.159 206.534 445.623C207.017 445.848 207.5 446.073 207.998 446.305C207.757 446.981 207.515 447.657 207.266 448.353C207.749 448.578 208.233 448.803 208.731 449.035C208.489 449.711 208.247 450.386 207.998 451.082C208.482 451.308 208.965 451.533 209.463 451.765C209.221 452.44 208.979 453.116 208.731 453.812C209.214 454.037 209.697 454.263 210.195 454.495C210.755 456.303 211.23 458.075 211.659 459.912C211.788 460.436 211.916 460.961 212.048 461.502C212.873 464.908 213.616 468.323 214.228 471.768C214.347 472.148 214.466 472.528 214.588 472.92C215.072 473.145 215.555 473.37 216.053 473.602C216.342 475.365 216.425 477.111 216.533 478.891C216.617 479.398 216.7 479.905 216.785 480.427C217.268 480.652 217.752 480.877 218.25 481.109C218.008 481.785 217.766 482.46 217.517 483.156C218.001 483.382 218.484 483.607 218.982 483.839C218.74 484.289 218.499 484.74 218.25 485.204C218.733 485.429 219.216 485.654 219.714 485.886C219.473 486.562 219.231 487.237 218.982 487.933C219.465 488.159 219.948 488.384 220.446 488.616C220.205 489.291 219.963 489.967 219.714 490.663C220.197 490.888 220.681 491.113 221.179 491.345C221.542 492.749 221.895 494.156 222.202 495.571C222.693 497.703 223.289 499.793 223.908 501.896C224.247 503.054 224.247 503.054 224.594 504.234C225.068 505.837 225.543 507.44 226.018 509.043C226.243 509.809 226.468 510.575 226.699 511.365C226.905 512.058 227.11 512.752 227.321 513.467C227.769 515.23 227.769 515.23 227.769 517.278C228.252 517.503 228.735 517.728 229.233 517.96C228.992 518.636 228.75 519.311 228.501 520.007C228.984 520.232 229.468 520.458 229.966 520.69C229.724 521.14 229.482 521.591 229.233 522.055C229.717 522.28 230.2 522.505 230.698 522.737C230.456 523.413 230.215 524.088 229.966 524.784C230.449 525.009 230.932 525.235 231.43 525.467C231.188 525.917 230.947 526.367 230.698 526.832C231.181 526.832 231.664 526.832 232.162 526.832C231.921 527.958 231.679 529.084 231.43 530.244C231.913 530.469 232.397 530.694 232.895 530.926C233.514 532.657 233.908 534.239 234.262 536.026C235.23 540.632 236.624 545.114 237.995 549.627C238.186 550.267 238.378 550.907 238.575 551.567C238.837 552.429 238.837 552.429 239.105 553.309C239.485 554.811 239.485 554.811 239.485 556.858C239.968 557.083 240.451 557.309 240.949 557.541C240.949 558.892 240.949 560.243 240.949 561.635C241.433 561.86 241.916 562.086 242.414 562.318C240.675 562.744 240.675 562.744 238.753 563C238.269 562.55 237.786 562.099 237.288 561.635C236.563 561.41 235.838 561.185 235.091 560.953C234.608 560.502 234.125 560.052 233.627 559.588C232.902 559.363 232.177 559.137 231.43 558.905C230.698 558.223 229.966 557.541 229.233 556.858C227.652 556.023 226.083 555.415 224.382 554.811C222.643 554.128 222.643 554.128 221.179 552.764C220.454 552.538 219.729 552.313 218.982 552.081C218.499 551.631 218.015 551.18 217.517 550.716C216.793 550.491 216.068 550.266 215.321 550.034C215.079 549.584 214.837 549.133 214.588 548.669C214.135 548.571 213.682 548.472 213.216 548.37C211.363 547.914 210.795 547.181 209.463 545.939C208.492 545.692 207.516 545.464 206.534 545.257C206.051 544.807 205.567 544.356 205.069 543.892C204.344 543.667 203.619 543.442 202.873 543.21C202.873 542.759 202.873 542.309 202.873 541.845C202.148 541.845 201.423 541.845 200.676 541.845C200.193 541.394 199.709 540.944 199.211 540.48C198.486 540.255 197.762 540.03 197.015 539.798C197.015 539.347 197.015 538.897 197.015 538.433C196.516 538.39 196.018 538.348 195.504 538.304C192.654 537.57 190.399 536.21 188.228 534.338C188.228 533.888 188.228 533.437 188.228 532.973C187.571 532.846 187.571 532.846 186.9 532.717C185.299 532.291 185.299 532.291 183.102 530.926C183.102 530.476 183.102 530.025 183.102 529.561C182.677 529.526 182.253 529.491 181.815 529.455C179.365 528.596 178.713 527.183 177.336 525.125C177.058 524.713 176.781 524.299 176.495 523.874C173.277 518.999 170.348 513.966 167.367 508.965C160.045 496.717 152.327 485.053 142.952 474.079C142.096 472.92 142.096 472.92 142.096 471.555C141.13 471.105 140.163 470.654 139.167 470.19C139.167 469.74 139.167 469.29 139.167 468.825C137.959 468.375 136.751 467.925 135.506 467.461C135.506 467.01 135.506 466.56 135.506 466.096C134.781 466.096 134.056 466.096 133.309 466.096C132.577 465.413 131.845 464.731 131.113 464.048C129.187 463.24 127.258 462.624 125.255 462.001C124.938 461.691 124.621 461.382 124.293 461.063C122.262 459.239 119.805 458.15 117.062 457.565C115.736 457.224 115.736 457.224 114.751 456.262C113.367 455.023 112.156 454.52 110.381 453.854C107.531 452.733 105.123 451.332 102.555 449.718C101.581 449.484 100.605 449.255 99.6262 449.035C98.894 448.353 98.1617 447.67 97.4295 446.988C96.9762 446.89 96.523 446.791 96.0565 446.689C94.5005 446.305 94.5005 446.305 92.7614 444.983C90.6914 443.467 88.9252 442.964 86.4458 442.211C85.6997 441.542 84.9645 440.861 84.2491 440.164C83.7658 440.051 83.2826 439.938 82.7846 439.822C81.3201 439.481 81.3201 439.481 80.3133 438.5C78.6724 437.03 76.8754 436.707 74.73 436.069C74.2467 435.619 73.7634 435.168 73.2655 434.704C72.5405 434.479 71.8156 434.254 71.0687 434.022C70.7217 433.684 70.3738 433.346 70.0158 432.998C68.9599 431.879 68.9599 431.879 67.499 431.676C65.3148 431.137 64.0106 429.892 62.2818 428.562C60.4717 427.606 58.6265 426.918 56.6985 426.174C54.2271 425.15 54.2271 425.15 52.7626 423.785C52.0377 423.56 51.3128 423.335 50.5659 423.103C50.2188 422.765 49.871 422.427 49.513 422.079C48.4439 420.953 48.4439 420.953 46.9047 420.715C45.107 420.296 44.5337 419.528 43.2435 418.326C42.7602 418.213 42.2769 418.101 41.779 417.985C39.9938 417.569 39.367 416.814 38.1178 415.596C37.6345 415.596 37.1512 415.596 36.6533 415.596C36.1546 415.11 36.1546 415.11 35.6465 414.615C34.5422 413.449 34.5422 413.449 32.9921 413.208C31.5276 412.867 31.5276 412.867 30.5207 411.885C29.3133 410.652 29.3133 410.652 27.1341 410.137C24.9213 409.45 24.2886 408.915 22.7407 407.407C21.7675 407.167 20.7914 406.938 19.8117 406.725C19.57 406.274 19.3284 405.824 19.0794 405.36C18.6262 405.262 18.1729 405.163 17.7065 405.061C15.8539 404.605 15.2857 403.872 13.9537 402.63C12.9828 402.383 12.0067 402.155 11.0248 401.948C10.5415 401.497 10.0582 401.047 9.56028 400.583C8.95618 400.245 8.35208 399.907 7.72967 399.559C5.89906 398.536 5.89906 398.536 4.43457 397.171C3.95129 397.101 3.46801 397.03 2.97009 396.958C1.5056 396.488 1.5056 396.488 0.590294 394.953C0.0447721 393.09 -0.0767803 391.584 0.0411109 389.664C0.524392 389.439 1.00767 389.214 1.5056 388.982C1.75676 387.846 1.99913 386.708 2.23784 385.57C3.97253 381.008 3.97253 381.008 5.89906 380.11C6.17072 378.75 6.40943 377.384 6.6313 376.016C7.09481 374.643 7.57663 373.276 8.09579 371.921C8.57907 371.921 9.06235 371.921 9.56028 371.921C9.80192 370.345 10.0436 368.768 10.2925 367.144C10.7758 367.144 11.2591 367.144 11.757 367.144C11.8324 366.441 11.9078 365.737 11.9855 365.012C12.4863 362.383 13.3247 360.598 14.686 358.273C14.9276 357.597 15.1693 356.922 15.4182 356.225C15.7807 355.69 16.1431 355.156 16.5166 354.605C17.6128 352.817 18.0375 351.423 18.3472 349.401C18.8305 349.401 19.3138 349.401 19.8117 349.401C19.9025 348.683 19.9926 347.965 20.0863 347.226C20.4788 344.993 21.0118 343.256 22.0084 341.212C22.4917 341.212 22.975 341.212 23.4729 341.212C23.6091 340.093 23.6091 340.093 23.7475 338.952C24.2051 336.435 24.2051 336.435 25.6696 334.388C27.0873 331.96 27.9066 329.468 28.759 326.831C29.3308 325.516 29.3309 325.516 30.7953 324.834C31.0531 323.471 31.2947 322.106 31.5276 320.739C32.1148 319.163 32.7417 317.598 33.4036 316.048C33.7368 315.262 34.0707 314.475 34.4134 313.665C34.7971 312.776 34.7971 312.776 35.1888 311.868C35.6721 311.868 36.1554 311.868 36.6533 311.868C36.7441 311.207 36.8342 310.545 36.9279 309.863C37.0787 309.174 37.2296 308.484 37.3855 307.773C37.8688 307.548 38.3521 307.323 38.85 307.091C39.1349 305.733 39.3765 304.367 39.5823 302.996C40.3145 300.949 40.3145 300.949 41.4129 299.328C42.509 297.541 42.9337 296.147 43.2435 294.125C43.7268 294.125 44.21 294.125 44.708 294.125C44.8442 293.048 44.8442 293.048 44.9826 291.949C45.375 289.716 45.9081 287.98 46.9047 285.936C47.388 285.936 47.8713 285.936 48.3692 285.936C48.46 285.302 48.55 284.669 48.6438 284.017C49.1014 281.841 49.1014 281.841 50.5659 279.794C51.4453 278.347 52.0092 277.167 52.3504 275.529C52.9157 272.955 53.9357 270.64 54.9594 268.193C55.4427 268.193 55.9259 268.193 56.4239 268.193C56.5601 267.116 56.5601 267.116 56.6985 266.017C57.0909 263.784 57.624 262.047 58.6206 260.004C59.1039 260.004 59.5872 260.004 60.0851 260.004C60.1451 259.465 60.2059 258.925 60.2681 258.369C60.9879 255.143 62.3331 252.308 63.7463 249.298C64.2808 248.144 64.8147 246.99 65.3477 245.835C65.585 245.329 65.8222 244.822 66.066 244.301C66.5669 243.185 66.9975 242.043 67.4075 240.896C67.8908 240.22 68.3741 239.545 68.872 238.848C68.9928 238.398 69.1136 237.948 69.2381 237.484C69.6042 236.119 69.6042 236.119 71.0687 234.072C71.1742 233.621 71.2804 233.171 71.3887 232.707C71.801 231.342 71.801 231.342 72.8993 230.403C74.4707 228.817 74.448 227.304 74.73 225.2C75.6145 222.728 76.6609 220.323 77.7043 217.906C78.0141 217.188 78.0141 217.188 78.3297 216.455C78.8378 215.276 79.3467 214.096 79.8557 212.916C80.3389 212.916 80.8222 212.916 81.3201 212.916C81.3956 212.185 81.471 211.453 81.5486 210.698C82.0692 208.054 82.5752 207.449 84.2491 205.41C85.0883 203.392 85.7671 201.336 86.4458 199.268C86.6875 198.592 86.9291 197.917 87.1781 197.221C86.6472 196.074 86.1127 194.929 85.5445 193.798C84.616 191.566 84.4725 189.36 84.2491 186.984C84.0075 186.984 83.7658 186.984 83.5169 186.984C83.4744 184.781 83.448 182.577 83.4253 180.373C83.407 179.439 83.407 179.439 83.388 178.487C83.3631 175.313 83.3843 172.807 84.9814 169.924C85.223 169.248 85.4646 168.572 85.7136 167.876C86.4458 165.829 87.1781 163.782 87.9103 161.735C88.3936 161.735 88.8769 161.735 89.3748 161.735C89.4554 160.939 89.5352 160.143 89.6179 159.323C90.0067 156.445 90.9096 153.867 92.0746 151.186C92.2672 150.729 92.4598 150.273 92.6575 149.802C93.2652 148.36 93.8825 146.922 94.5005 145.485C94.915 144.507 95.3287 143.531 95.7417 142.554C96.3223 141.181 96.9038 139.808 97.4903 138.437C98.2503 136.66 98.9767 134.889 99.6262 133.073C100.115 131.708 100.602 130.343 101.091 128.978C101.574 128.978 102.057 128.978 102.555 128.978C102.691 127.922 102.691 127.922 102.83 126.846C103.243 124.46 103.864 122.37 104.752 120.107C105.235 120.107 105.718 120.107 106.216 120.107C106.307 119.333 106.397 118.558 106.491 117.761C106.642 116.959 106.793 116.156 106.949 115.33C107.432 115.104 107.915 114.879 108.413 114.647C108.675 113.057 108.917 111.464 109.145 109.87C109.832 107.908 109.832 107.908 110.61 106.458C111.093 106.233 111.576 106.008 112.074 105.776C112.18 105.016 112.286 104.256 112.394 103.473C112.807 100.999 112.807 100.999 113.905 100.017C115.769 98.2077 115.521 95.9304 115.736 93.4921C116.219 93.4921 116.702 93.4921 117.2 93.4921C117.2 92.3661 117.2 91.2401 117.2 90.08C117.683 90.08 118.167 90.08 118.665 90.08C118.801 89.5313 118.801 89.5313 118.939 88.9711C119.638 86.4945 120.491 84.0849 121.547 81.7203C122.516 79.3844 123.227 77.0027 123.951 74.5924C124.523 73.0194 124.523 73.0194 125.987 70.9721C126.806 69.5267 126.806 69.5267 127.451 67.56C127.693 67.1096 127.935 66.6592 128.184 66.1952C128.425 65.5196 128.667 64.844 128.916 64.1479C129.158 63.7255 129.399 63.303 129.648 62.8683C130.461 61.4114 130.461 61.4114 130.747 59.6698C131.113 58.0061 131.113 58.0061 132.577 55.9588C132.682 55.4709 132.787 54.9822 132.895 54.4793C133.464 51.826 134.51 49.3946 135.552 46.8744C135.758 46.3687 135.965 45.863 136.177 45.3423C136.683 44.1037 137.193 42.8658 137.703 41.6279C138.186 41.6279 138.669 41.6279 139.167 41.6279C139.167 40.5019 139.167 39.3759 139.167 38.2158C139.651 38.2158 140.134 38.2158 140.632 38.2158C140.768 37.3081 140.768 37.3081 140.906 36.3814C141.516 33.3692 142.471 31.21 144.293 28.6618C145.337 26.5224 146.036 24.3489 146.718 22.0935C147.95 18.1846 149.754 14.5957 151.616 10.9188C152.688 8.66952 153.708 6.43185 154.544 4.09455C155.265 2.72424 155.996 1.35871 156.741 0ZM151.616 11.6012C152.348 12.9661 152.348 12.9661 152.348 12.9661L151.616 11.6012ZM150.151 15.0133C150.883 16.3782 150.883 16.3782 150.883 16.3782L150.151 15.0133ZM148.687 18.4255C149.419 19.7903 149.419 19.7903 149.419 19.7903L148.687 18.4255ZM147.222 21.8376C147.954 23.2024 147.954 23.2024 147.954 23.2024L147.222 21.8376ZM137.703 43.6752C138.435 45.04 138.435 45.04 138.435 45.04L137.703 43.6752ZM136.238 47.0873C136.971 48.4521 136.971 48.4521 136.971 48.4521L136.238 47.0873ZM134.774 50.4994C135.506 51.8642 135.506 51.8642 135.506 51.8642L134.774 50.4994ZM125.255 73.0194C125.987 74.3842 125.987 74.3842 125.987 74.3842L125.255 73.0194ZM123.79 76.4315C124.523 77.7964 124.523 77.7964 124.523 77.7964L123.79 76.4315ZM115.736 95.5394C116.468 96.9042 116.468 96.9042 116.468 96.9042L115.736 95.5394ZM113.539 100.999C114.271 102.364 114.271 102.364 114.271 102.364L113.539 100.999ZM110.61 107.823C111.342 109.188 111.342 109.188 111.342 109.188L110.61 107.823ZM109.878 109.87C110.61 111.235 110.61 111.235 110.61 111.235L109.878 109.87ZM274.632 113.282C274.632 113.508 274.632 113.733 274.632 113.965C276.324 113.965 278.015 113.965 279.758 113.965C279.758 113.74 279.758 113.514 279.758 113.282C278.067 113.282 276.375 113.282 274.632 113.282ZM286.348 113.965C286.348 114.19 286.348 114.415 286.348 114.647C287.798 114.647 289.248 114.647 290.742 114.647C290.742 114.422 290.742 114.197 290.742 113.965C289.292 113.965 287.842 113.965 286.348 113.965ZM295.868 114.647C295.868 114.872 295.868 115.098 295.868 115.33C297.317 115.33 298.767 115.33 300.261 115.33C300.261 115.104 300.261 114.879 300.261 114.647C298.811 114.647 297.361 114.647 295.868 114.647ZM306.851 115.33C306.851 115.555 306.851 115.78 306.851 116.012C313.134 116.012 319.416 116.012 325.889 116.012C325.889 115.787 325.889 115.562 325.889 115.33C319.607 115.33 313.324 115.33 306.851 115.33ZM104.752 122.154C105.484 123.519 105.484 123.519 105.484 123.519L104.752 122.154ZM103.287 125.566C104.02 126.931 104.02 126.931 104.02 126.931L103.287 125.566ZM101.091 131.025C101.823 132.39 101.823 132.39 101.823 132.39L101.091 131.025ZM98.894 136.485C99.6262 137.85 99.6262 137.85 99.6262 137.85L98.894 136.485ZM96.6973 141.944C97.4295 143.309 97.4295 143.309 97.4295 143.309L96.6973 141.944ZM95.2328 145.356C95.965 146.721 95.965 146.721 95.965 146.721L95.2328 145.356ZM93.7683 148.768C94.5005 150.133 94.5005 150.133 94.5005 150.133L93.7683 148.768ZM468.677 149.451C468.677 151.478 468.677 153.505 468.677 155.593C468.919 155.593 469.16 155.593 469.409 155.593C469.409 153.566 469.409 151.539 469.409 149.451C469.168 149.451 468.926 149.451 468.677 149.451ZM93.036 150.816C93.7683 152.181 93.7683 152.181 93.7683 152.181L93.036 150.816ZM92.3038 152.863C93.036 154.228 93.036 154.228 93.036 154.228L92.3038 152.863ZM90.8393 156.275C91.5716 157.64 91.5716 157.64 91.5716 157.64L90.8393 156.275ZM90.1071 158.322C90.8393 159.687 90.8393 159.687 90.8393 159.687L90.1071 158.322ZM87.9103 163.782C88.6426 165.147 88.6426 165.147 88.6426 165.147L87.9103 163.782ZM87.1781 165.829C87.9103 167.194 87.9103 167.194 87.9103 167.194L87.1781 165.829ZM84.2491 173.336C84.9814 174.701 84.9814 174.701 84.9814 174.701L84.2491 173.336ZM82.7846 208.139C83.5169 209.504 83.5169 209.504 83.5169 209.504L82.7846 208.139ZM79.1234 216.328C79.8557 217.693 79.8557 217.693 79.8557 217.693L79.1234 216.328ZM77.6589 219.741C78.3912 221.105 78.3912 221.105 78.3912 221.105L77.6589 219.741ZM65.943 245.673C66.6753 247.038 66.6753 247.038 66.6753 247.038L65.943 245.673ZM63.7463 250.45C64.4785 251.815 64.4785 251.815 64.4785 251.815L63.7463 250.45ZM62.2818 253.862C63.0141 255.227 63.0141 255.227 63.0141 255.227L62.2818 253.862ZM57.8884 263.416C58.6206 264.781 58.6206 264.781 58.6206 264.781L57.8884 263.416ZM54.2271 271.605C54.9594 272.97 54.9594 272.97 54.9594 272.97L54.2271 271.605ZM46.1725 289.348C46.9047 290.713 46.9047 290.713 46.9047 290.713L46.1725 289.348ZM34.4566 315.28C35.1888 316.645 35.1888 316.645 35.1888 316.645L34.4566 315.28ZM32.9921 318.692C33.7243 320.057 33.7243 320.057 33.7243 320.057L32.9921 318.692ZM29.3309 326.881C30.0631 328.246 30.0631 328.246 30.0631 328.246L29.3309 326.881ZM24.9374 336.435C25.6696 337.8 25.6696 337.8 25.6696 337.8L24.9374 336.435ZM21.2762 344.624C22.0084 345.989 22.0084 345.989 22.0084 345.989L21.2762 344.624ZM13.2215 362.367C13.9537 363.732 13.9537 363.732 13.9537 363.732L13.2215 362.367ZM419.617 395.806C420.349 397.853 420.349 397.853 420.349 397.853L419.617 395.806ZM418.884 398.536C419.617 399.901 419.617 399.901 419.617 399.901L418.884 398.536ZM418.152 400.583C418.884 401.948 418.884 401.948 418.884 401.948L418.152 400.583ZM417.42 402.63C418.152 403.995 418.152 403.995 418.152 403.995L417.42 402.63ZM181.638 404.678C182.37 406.042 182.37 406.042 182.37 406.042L181.638 404.678ZM416.688 404.678C417.42 406.042 417.42 406.042 417.42 406.042L416.688 404.678ZM415.955 407.407C416.688 408.772 416.688 408.772 416.688 408.772L415.955 407.407ZM415.223 409.455C415.955 410.819 415.955 410.819 415.955 410.819L415.223 409.455ZM414.491 411.502C415.223 412.867 415.223 412.867 415.223 412.867L414.491 411.502ZM413.759 414.232C414.491 415.596 414.491 415.596 414.491 415.596L413.759 414.232ZM413.026 416.279C413.759 417.644 413.759 417.644 413.759 417.644L413.026 416.279ZM172.851 423.785C173.583 425.15 173.583 425.15 173.583 425.15L172.851 423.785ZM405.704 438.799C406.436 440.164 406.436 440.164 406.436 440.164L405.704 438.799ZM404.24 443.576C404.972 444.941 404.972 444.941 404.972 444.941L404.24 443.576ZM403.507 445.623C404.24 447.67 404.24 447.67 404.24 447.67L403.507 445.623ZM402.775 448.353C403.507 449.718 403.507 449.718 403.507 449.718L402.775 448.353ZM402.043 450.4C402.775 451.765 402.775 451.765 402.775 451.765L402.043 450.4ZM399.114 459.954C399.846 461.319 399.846 461.319 399.846 461.319L399.114 459.954ZM396.185 468.825C396.917 470.19 396.917 470.19 396.917 470.19L396.185 468.825ZM395.453 471.555C396.185 472.92 396.185 472.92 396.185 472.92L395.453 471.555ZM394.72 473.602C395.453 474.967 395.453 474.967 395.453 474.967L394.72 473.602ZM393.988 475.65C394.72 477.697 394.72 477.697 394.72 477.697L393.988 475.65ZM393.256 478.379C393.988 479.744 393.988 479.744 393.988 479.744L393.256 478.379ZM392.524 480.427C393.256 482.474 393.256 482.474 393.256 482.474L392.524 480.427ZM391.791 483.156C392.524 484.521 392.524 484.521 392.524 484.521L391.791 483.156ZM390.327 487.933C391.059 489.298 391.059 489.298 391.059 489.298L390.327 487.933ZM388.862 492.71C389.595 494.075 389.595 494.075 389.595 494.075L388.862 492.71ZM384.469 506.359C385.201 507.724 385.201 507.724 385.201 507.724L384.469 506.359ZM383.737 509.088C384.469 510.453 384.469 510.453 384.469 510.453L383.737 509.088ZM383.004 511.136C383.737 513.183 383.737 513.183 383.737 513.183L383.004 511.136ZM382.272 513.865C383.004 515.23 383.004 515.23 383.004 515.23L382.272 513.865ZM381.54 515.913C382.272 517.96 382.272 517.96 382.272 517.96L381.54 515.913ZM380.808 518.642C381.54 520.007 381.54 520.007 381.54 520.007L380.808 518.642ZM380.076 520.69C380.808 522.737 380.808 522.737 380.808 522.737L380.076 520.69ZM379.343 523.419C380.076 524.784 380.076 524.784 380.076 524.784L379.343 523.419ZM372.753 544.575C373.485 546.622 373.485 546.622 373.485 546.622L372.753 544.575ZM372.021 547.304C372.753 548.669 372.753 548.669 372.753 548.669L372.021 547.304ZM371.289 550.034C372.021 551.399 372.021 551.399 372.021 551.399L371.289 550.034ZM370.556 552.081C371.289 553.446 371.289 553.446 371.289 553.446L370.556 552.081ZM369.824 554.811C370.556 556.176 370.556 556.176 370.556 556.176L369.824 554.811ZM369.092 556.858C369.824 558.905 369.824 558.905 369.824 558.905L369.092 556.858Z" fill="white"/>
<path d="M439.755 303.047C440.31 303.189 440.863 303.331 441.433 303.478C442.485 306.476 441.966 309.088 440.753 312.009C439.983 313.129 439.982 313.129 438.532 313.819C437.986 315.307 437.986 315.307 437.563 317.123C436.172 322.267 434.134 327.13 432.106 332.072C431.823 332.771 431.541 333.471 431.25 334.191C430.994 334.814 430.738 335.437 430.475 336.079C429.785 338.072 429.412 340.009 429.103 342.084C428.624 342.084 428.145 342.084 427.652 342.084C427.428 342.738 427.203 343.391 426.972 344.066C425.626 347.831 424.096 349.288 420.399 351.046C420.16 351.501 419.92 351.956 419.674 352.425C418.53 352.571 417.387 352.713 416.242 352.84C412.711 353.428 409.355 354.699 405.983 355.828C405.217 356.077 404.45 356.325 403.66 356.581C402.932 356.822 402.205 357.063 401.456 357.312C400.793 357.532 400.13 357.751 399.447 357.977C397.792 358.496 397.792 358.496 397.189 360.008C395.939 360.275 395.939 360.275 394.242 360.481C390.545 361.111 387.321 362.32 383.906 363.756C383.412 363.963 382.918 364.171 382.409 364.384C379.727 365.537 377.207 366.8 374.704 368.28C374.195 368.508 373.686 368.735 373.163 368.97C371.69 369.716 370.746 370.561 369.627 371.727C368.901 372.417 368.901 372.417 367.451 372.675C366.733 372.888 366.733 372.888 366 373.106C365.761 373.789 365.521 374.471 365.275 375.174C364.602 375.323 364.602 375.323 363.915 375.476C361.842 375.997 361.362 376.96 360.197 378.621C359.479 379.304 359.479 379.304 358.747 380C358.268 380 357.789 380 357.296 380C355.489 376.767 355.898 374.525 356.571 371.038C356.93 370.697 356.93 370.697 357.296 370.349C357.561 369.435 357.8 368.515 358.022 367.591C358.204 366.947 358.204 366.947 358.39 366.29C358.738 364.868 358.897 363.53 359.019 362.076C359.5 357.7 360.29 352.866 362.421 348.927C363.203 347.395 363.34 346.188 363.461 344.497C363.629 342.173 364.171 340.701 365.275 338.637C365.546 337.264 365.546 337.264 365.637 335.879C365.969 332.906 366.648 331.127 368.901 328.985C369.245 328.644 369.59 328.303 369.944 327.951C372.484 325.634 375.219 324.081 378.647 323.427C379.751 323.212 380.854 322.997 381.957 322.781C382.489 322.682 383.021 322.584 383.569 322.482C383.994 322.353 384.42 322.224 384.858 322.091C385.098 321.636 385.337 321.181 385.584 320.713C387.049 320.249 388.531 319.832 390.026 319.463C392.174 318.893 394.125 318.116 396.146 317.222C398.679 316.109 400.947 315.583 403.717 315.198C404.195 314.743 404.674 314.288 405.167 313.819C406.422 313.429 407.695 313.091 408.975 312.785C414.472 311.427 414.472 311.427 419.674 309.294C421.897 308.282 423.785 307.98 426.201 307.614C426.68 307.159 427.159 306.704 427.652 306.236C428.953 305.848 430.271 305.509 431.596 305.201C434.437 304.54 437.004 302.682 439.755 303.047ZM361.648 352.425C362.373 354.493 362.373 354.493 362.373 354.493L361.648 352.425ZM360.923 355.182C361.648 357.25 361.648 357.25 361.648 357.25L360.923 355.182ZM360.197 358.629C360.923 360.008 360.923 360.008 360.923 360.008L360.197 358.629ZM359.472 361.387C360.197 363.455 360.197 363.455 360.197 363.455L359.472 361.387Z" fill="white"/>
<path d="M170.468 303C170.71 303.45 170.952 303.899 171.201 304.363C171.928 304.138 172.654 303.913 173.403 303.681C173.403 304.131 173.403 304.581 173.403 305.044C174.174 305.002 174.174 305.002 174.962 304.959C177.353 305.056 179.24 305.635 181.474 306.407C181.474 306.857 181.474 307.307 181.474 307.77C182.2 307.545 182.927 307.32 183.675 307.088C183.675 307.538 183.675 307.988 183.675 308.451C188.8 309.52 188.8 309.52 193.948 310.496C193.948 310.945 193.948 311.395 193.948 311.858C194.505 311.949 195.062 312.04 195.636 312.132C196.365 312.253 197.095 312.374 197.845 312.498C198.931 312.675 198.931 312.675 200.039 312.857C202.019 313.221 202.019 313.221 204.22 313.903C204.22 314.352 204.22 314.802 204.22 315.265C204.947 315.041 205.673 314.816 206.421 314.584C206.421 315.034 206.421 315.484 206.421 315.947C207.345 316.045 208.268 316.144 209.219 316.245C211.137 316.449 212.639 316.736 214.493 317.31C214.493 317.759 214.493 318.209 214.493 318.673C215.219 318.448 215.946 318.223 216.694 317.991C216.694 318.441 216.694 318.891 216.694 319.354C217.715 319.438 217.715 319.438 218.757 319.524C222.621 320.033 226.363 321.254 229.902 322.761C230.265 323.436 230.265 323.436 230.635 324.124C231.156 324.085 231.676 324.047 232.211 324.007C234.747 324.148 236.219 324.854 238.432 325.998C239.122 326.345 239.812 326.694 240.524 327.052C244.255 329.391 245.131 332.154 246.182 336.091C246.312 336.55 246.442 337.007 246.576 337.48C247.12 339.443 247.512 341.168 247.512 343.204C247.996 343.428 248.48 343.653 248.979 343.885C248.979 345.684 248.979 347.483 248.979 349.336C249.464 349.561 249.948 349.786 250.447 350.018C250.447 351.817 250.447 353.616 250.447 355.469C250.931 355.694 251.415 355.919 251.914 356.15C251.551 357.162 251.551 357.162 251.18 358.195C251.665 358.42 252.149 358.644 252.648 358.876C252.285 360.225 252.285 360.225 251.914 361.602C252.399 361.827 252.883 362.052 253.382 362.283C253.019 363.295 253.019 363.295 252.648 364.327C253.132 364.552 253.617 364.777 254.116 365.009C253.752 366.021 253.752 366.021 253.382 367.053C253.866 367.053 254.35 367.053 254.849 367.053C254.607 368.177 254.365 369.302 254.116 370.46C254.6 370.685 255.084 370.91 255.583 371.142C255.22 372.153 255.22 372.153 254.849 373.186C255.334 373.186 255.818 373.186 256.317 373.186C257.22 376.876 257.22 376.876 256.362 378.893C256.105 379.258 255.848 379.623 255.583 380C253.1 378.991 251.37 377.663 249.392 375.954C247.169 374.033 244.993 372.566 242.375 371.142C241.891 370.692 241.407 370.242 240.908 369.779C239.818 369.441 239.818 369.441 238.707 369.097C238.407 368.796 238.107 368.495 237.798 368.184C235.886 366.511 233.594 365.63 231.231 364.626C230.766 364.419 230.3 364.212 229.82 363.999C225.818 362.274 221.852 361.324 217.52 360.537C215.96 360.239 215.96 360.239 214.493 359.558C214.493 359.108 214.493 358.658 214.493 358.195C214.08 358.103 213.668 358.01 213.243 357.915C208.348 356.751 203.58 355.299 198.809 353.765C198.172 353.563 197.535 353.361 196.879 353.153C188.63 350.469 188.63 350.469 186.014 346.951C185.707 346.551 185.399 346.15 185.082 345.738C184.409 344.566 184.409 344.566 184.409 342.522C183.925 342.297 183.44 342.072 182.941 341.841C182.289 340.385 181.703 338.903 181.152 337.412C180.992 336.98 180.83 336.548 180.664 336.103C179.592 333.217 178.551 330.319 177.53 327.416C177.131 326.332 176.671 325.268 176.2 324.209C175.604 322.761 175.604 322.761 175.604 320.717C175.12 320.492 174.635 320.267 174.136 320.035C174.378 319.586 174.621 319.136 174.87 318.673C174.386 318.448 173.901 318.223 173.403 317.991C173.645 317.541 173.887 317.092 174.136 316.628C173.652 316.403 173.168 316.179 172.669 315.947C172.911 315.497 173.153 315.047 173.403 314.584C172.918 314.359 172.434 314.134 171.935 313.903C171.935 313.003 171.935 312.104 171.935 311.177C171.451 310.952 170.966 310.727 170.468 310.496C170.71 310.046 170.952 309.596 171.201 309.133C170.717 308.908 170.233 308.683 169.734 308.451C169.976 308.002 170.218 307.552 170.468 307.088C169.983 306.864 169.499 306.639 169 306.407C169 305.508 169 304.608 169 303.681C169.484 303.457 169.969 303.232 170.468 303Z" fill="white"/>
<path d="M258.636 506C262.326 506.999 264.417 508.96 267.025 511.409C267.636 511.964 267.636 511.964 268.261 512.529C271.243 515.286 271.243 515.286 271.243 516.819C271.679 516.991 272.115 517.163 272.564 517.341C274.372 518.253 275.419 519.231 276.805 520.622C281.587 525.089 287.383 529.195 294.232 530.342C294.874 530.481 295.517 530.62 296.178 530.765C297.978 531.066 297.978 531.066 299.979 531.018C300.53 531.018 301.08 531.018 301.648 531.018C301.892 531.241 302.137 531.464 302.389 531.694C304.614 531.807 304.614 531.807 306.839 531.694C307.083 531.471 307.328 531.248 307.58 531.018C309.062 531.018 310.544 531.021 312.024 531.06C313.668 531.078 313.668 531.078 315.738 530.342C316.211 530.258 316.686 530.174 317.175 530.088C319.032 529.575 320.131 528.711 321.67 527.637C325.79 525.609 325.79 525.609 327.603 525.609C327.603 525.162 327.603 524.716 327.603 524.256C328.017 524.209 328.43 524.161 328.857 524.112C331.24 523.372 332.467 522.101 334.239 520.479C334.929 519.85 335.619 519.221 336.33 518.573C336.685 518.243 337.04 517.913 337.406 517.574C338.492 516.567 339.588 515.57 340.687 514.574C344.469 511.369 344.469 511.369 346.884 507.352C348.367 507.352 349.85 507.352 351.333 507.352C351.479 508.422 351.617 509.493 351.751 510.564C351.867 511.459 351.867 511.459 351.985 512.371C352.11 514.792 351.427 516.563 350.592 518.847C350.402 520.212 350.265 521.576 350.131 522.946C349.85 524.256 349.85 524.256 348.367 526.285C347.849 527.24 347.351 528.205 346.867 529.174C346.584 529.732 346.3 530.29 346.009 530.865C345.422 532.031 344.836 533.199 344.254 534.367C342.696 537.426 341.084 539.893 338.727 542.513C338.727 543.182 338.727 543.852 338.727 544.541C337.625 544.876 337.625 544.876 336.502 545.218C336.395 545.636 336.287 546.055 336.178 546.485C335.609 548.442 334.6 548.807 332.794 549.951C332.152 550.55 331.509 551.15 330.847 551.768C329.086 553.331 329.086 553.331 327.603 553.331C327.236 554.336 327.236 554.336 326.861 555.36C326.127 555.36 325.393 555.36 324.637 555.36C323.358 555.978 322.108 556.646 320.883 557.347C314.405 561.015 307.74 561.36 300.164 560.769C297.093 560.084 294.202 559.127 291.265 558.065C290.092 557.669 288.918 557.275 287.743 556.881C286.948 556.603 286.152 556.324 285.333 556.036C285.333 555.59 285.333 555.144 285.333 554.684C284.354 554.461 283.375 554.238 282.366 554.008C282.366 553.561 282.366 553.115 282.366 552.655C281.95 552.61 281.533 552.565 281.104 552.518C273.704 550.177 268.094 539.421 264.862 533.612C262.344 528.739 262.344 528.739 262.344 526.285C261.854 526.062 261.365 525.839 260.861 525.609C261.105 525.162 261.35 524.716 261.602 524.256C261.113 524.033 260.623 523.81 260.119 523.58C259.418 521.597 259.065 519.54 258.636 517.495C258.468 516.853 258.299 516.212 258.126 515.551C257.773 512.334 258.23 509.202 258.636 506ZM298.681 531.694C301.648 532.37 301.648 532.37 301.648 532.37L298.681 531.694ZM307.58 531.694C307.58 531.917 307.58 532.141 307.58 532.37C308.804 532.37 310.027 532.37 311.288 532.37C311.288 532.147 311.288 531.924 311.288 531.694C310.064 531.694 308.841 531.694 307.58 531.694Z" fill="white"/>
<path d="M467 147C467.33 147 467.66 147 468 147C468 149.97 468 152.94 468 156C467.67 156 467.34 156 467 156C467 153.03 467 150.06 467 147Z" fill="#7C7D79"/>
<path d="M256.667 381C257.107 381.22 257.547 381.44 258 381.667C258 382.107 258 382.547 258 383C257.34 382.78 256.68 382.56 256 382.333C256.22 381.893 256.44 381.453 256.667 381Z" fill="#535552"/>
<path d="M303 562C304.32 562 305.64 562 307 562C307 562.33 307 562.66 307 563C305.68 563 304.36 563 303 563C303 562.67 303 562.34 303 562Z" fill="#7C7D79"/>
<path d="M189 388C189.66 388 190.32 388 191 388C190.67 388.66 190.34 389.32 190 390C189.67 389.34 189.34 388.68 189 388Z" fill="#323532"/>
<path d="M355 377C355.33 377.99 355.66 378.98 356 380C355.67 380 355.34 380 355 380C355 379.01 355 378.02 355 377Z" fill="#1A1D1B"/>
<path d="M472 112C472.33 112 472.66 112 473 112C473 113.65 473 115.3 473 117C472.67 117 472.34 117 472 117C472 115.35 472 113.7 472 112Z" fill="#7C7D79"/>
<path d="M355 381C355.66 381.44 356.32 381.88 357 382.333C356.01 382.663 356.01 382.663 355 383C355 382.34 355 381.68 355 381Z" fill="#3F413E"/>
<path d="M388 148C389 150 389 150 389 150L388 148Z" fill="#7C7D79"/>
<path d="M241.5 563C241.665 563.33 241.83 563.66 242 564C241.67 563.835 241.34 563.67 241 563.5C241.165 563.335 241.33 563.17 241.5 563Z" fill="#2A2D2B"/>
<path d="M369 562C371 563 371 563 371 563L369 562Z" fill="#7C7D79"/>
<path d="M310 561C312 562 312 562 312 562L310 561Z" fill="#7C7D79"/>
<path d="M422 392C422.66 392 423.32 392 424 392C423.67 392.33 423.34 392.66 423 393C422.67 392.67 422.34 392.34 422 392Z" fill="#7C7D79"/>
<path d="M371 561C372 562 372 562 372 562L371 561Z" fill="#7C7D79"/>
<path d="M299 561C300 562 300 562 300 562L299 561Z" fill="#7C7D79"/>
<path d="M313 560C315 561 315 561 315 561L313 560Z" fill="#7C7D79"/>
<path d="M296 560C297 561 297 561 297 561L296 560Z" fill="#7C7D79"/>
<path d="M382 556C383 557 383 557 383 557L382 556Z" fill="#7C7D79"/>
<path d="M391 551C392 552 392 552 392 552L391 551Z" fill="#7C7D79"/>
<path d="M316 529C318 530 318 530 318 530L316 529Z" fill="#020504"/>
<path d="M350 506C352 507 352 507 352 507L350 506Z" fill="#7C7D79"/>
<path d="M470 469C471 470 471 470 471 470L470 469Z" fill="#7C7D79"/>
<path d="M476 466C478 467 478 467 478 467L476 466Z" fill="#7C7D79"/>
<path d="M483 462C484 463 484 463 484 463L483 462Z" fill="#7C7D79"/>
<path d="M498 455C500 456 500 456 500 456L498 455Z" fill="#7C7D79"/>
<path d="M437 511C439 512 439 512 439 512L437 511Z" fill="#7C7D79"/>
<path d="M168 430C170 431 170 431 170 431L168 430Z" fill="#020504"/>
<path d="M229 364C231 365 231 365 231 365L229 364Z" fill="#7C7D79"/>
<path d="M384 363C385 364 385 364 385 364L384 363Z" fill="#7C7D79"/>
<path d="M228 363C229 364 229 364 229 364L228 363Z" fill="#7C7D79"/>
<path d="M224 362C226 363 226 363 226 363L224 362Z" fill="#7C7D79"/>
<path d="M222 361C223 362 223 362 223 362L222 361Z" fill="#7C7D79"/>
<path d="M397 359C399 360 399 360 399 360L397 359Z" fill="#7C7D79"/>
<path d="M400 358C401 359 401 359 401 359L400 358Z" fill="#7C7D79"/>
<path d="M410 355C411 356 411 356 411 356L410 355Z" fill="#7C7D79"/>
<path d="M412 354C413 355 413 355 413 355L412 354Z" fill="#7C7D79"/>
<path d="M200 354C201 355 201 355 201 355L200 354Z" fill="#7C7D79"/>
<path d="M414 353C415 354 415 354 415 354L414 353Z" fill="#7C7D79"/>
<path d="M194 352C195 353 195 353 195 353L194 352Z" fill="#7C7D79"/>
<path d="M379 159C380 160 380 160 380 160L379 159Z" fill="#7C7D79"/>
<path d="M1959.37 282.224V447.376H2074.69H2190V407.339V367.302H2123.23C2086.55 367.302 2054.92 366.552 2052.94 365.801C2049.87 364.55 2049.43 351.037 2049.43 240.686V117.072H2004.4H1959.37V282.224Z" fill="white"/>
<path d="M1806.5 116.285C1805.61 117.035 1804.95 191.231 1804.95 280.916V443.797L1810.04 445.296C1812.7 446.045 1833.07 446.795 1855.44 446.795H1895.74V280.666V114.537H1851.89C1827.76 114.537 1807.16 115.286 1806.5 116.285Z" fill="white"/>
<path d="M1535.65 175.093C1524.62 208.624 1500.15 282.441 1481.4 339.494C1462.44 396.296 1447.01 443.339 1447.01 443.84C1447.01 444.34 1467.73 444.841 1492.87 444.841H1538.95L1541.6 434.081C1543.14 428.326 1546.45 416.064 1548.88 406.556L1553.29 389.79L1604.22 390.291L1655.16 391.041L1662.65 418.066L1669.93 444.841L1716.67 444.34C1746.22 443.84 1763.2 442.589 1762.98 441.087C1762.54 437.584 1656.92 119.792 1655.38 117.039C1654.49 115.538 1633.99 114.537 1604.88 114.537H1555.71L1535.65 175.093ZM1621.2 261.923L1635.97 317.223H1604.44H1572.91L1574.89 310.217C1576 306.464 1582.39 282.692 1589.23 257.168C1604.44 199.866 1603.34 203.619 1604.88 205.371C1605.54 206.121 1612.82 231.645 1621.2 261.923Z" fill="white"/>
<path d="M1056 277.028V442.056L1061.06 443.306C1063.7 444.057 1080.21 444.307 1097.82 444.057L1129.74 443.306L1130.84 323.536L1131.94 203.765L1158.35 320.785C1172.66 385.046 1185.87 439.306 1187.63 441.306C1190.05 443.806 1197.53 444.557 1221.75 444.057L1253 443.306L1280.52 321.285L1308.03 199.265L1308.69 320.535L1309.13 441.806L1316.4 443.306C1320.14 444.057 1336.87 444.557 1353.16 444.057L1382.87 443.306V278.278V113.25L1324.1 112.5L1265.55 112L1262.03 125.002C1260.27 132.253 1250.14 177.011 1239.58 224.269C1226.15 283.529 1219.77 308.783 1218.44 305.533C1217.56 303.032 1207.66 260.775 1196.65 212.017C1185.65 163.258 1175.74 120.751 1174.64 117.751L1172.66 112H1114.33H1056V277.028Z" fill="white"/>
<path d="M695.502 150.212V185.424L782.304 185.927L869.372 186.682L771.686 282.761L674 379.091L674.796 412.291L675.593 445.742L842.296 446.497L1009 447L1008.2 411.285L1007.41 375.318L907.597 374.061L807.788 372.803L904.147 277.479L1000.77 182.155V148.703V115H848.136H695.502V150.212Z" fill="#FED218"/>
</svg>
